# xmcd
#
# Track frame offsets:
#	150
#	14167
#	38530
#	49442
#	71740
#	93935
#	106885
#	121140
#	143150
#	164130
#
# Disc length: 2444 seconds
#
# Revision: 0
# Processed by: cddbd v1.4PL0 Copyright (c) Steve Scherf et al.
# Submitted via: dBpowerAMP V4.0
#
DISCID=8c098a0a
DTITLE=Simone - XXI Grandes Sucessos (Disco 2)
DYEAR=1900
DGENRE=MPB
TTITLE0=Dr. Getúlio
TTITLE1=Liberdade
TTITLE2=Noite Dos Mascarados
TTITLE3=O Tempo Não Para
TTITLE4=Codinome Beija-Flor
TTITLE5=Eu Preciso de Você
TTITLE6=Quase Um Segundo
TTITLE7=Sou Eu
TTITLE8=Danadinho Danado
TTITLE9=Tô Que Tô
EXTD=
EXTT0=
EXTT1=
EXTT2=
EXTT3=
EXTT4=
EXTT5=
EXTT6=
EXTT7=
EXTT8=
EXTT9=
PLAYORDER=
